{
  "accessors": [
    {
      "bufferView": 2,
      "componentType": 5126,
      "count": 28,
      "max": [
        0.15964800119400024,
        -0.16455499827861786,
        1.2482010126113892
      ],
      "min": [
        -0.15964800119400024,
        -0.26795300841331482,
        0.85251700878143311
      ],
      "type": "VEC3"
    },
    {
      "bufferView": 2,
      "byteOffset": 336,
      "componentType": 5126,
      "count": 28,
      "max": [
        0.41402143239974976,
        -0.85128730535507202,
        0.42451223731040955
      ],
      "min": [
        -0.41402143239974976,
        -0.99995684623718262,
        -0.49469265341758728
      ],
      "type": "VEC3"
    },
    {
      "bufferView": 3,
      "componentType": 5126,
      "count": 28,
      "max": [
        1,
        0.41375246644020081,
        0.044436264783143997,
        1
      ],
      "min": [
        0.91017252206802368,
        -0.41375246644020081,
        -0.045872434973716736,
        1
      ],
      "type": "VEC4"
    },
    {
      "bufferView": 1,
      "componentType": 5126,
      "count": 28,
      "max": [
        1.0055999755859375,
        0.97089999914169312
      ],
      "min": [
        -0.00559999980032444,
        0.00559999980032444
      ],
      "type": "VEC2"
    },
    {
      "bufferView": 0,
      "componentType": 5125,
      "count": 93,
      "max": [
        27
      ],
      "min": [
        0
      ],
      "type": "SCALAR"
    },
    {
      "bufferView": 2,
      "byteOffset": 672,
      "componentType": 5126,
      "count": 557,
      "max": [
        0.74751400947570801,
        0.32563599944114685,
        1.5050909519195557
      ],
      "min": [
        -0.74751400947570801,
        -0.39429599046707153,
        0
      ],
      "type": "VEC3"
    },
    {
      "bufferView": 2,
      "byteOffset": 7356,
      "componentType": 5126,
      "count": 557,
      "max": [
        0.99471533298492432,
        0.99882888793945312,
        0.99984449148178101
      ],
      "min": [
        -0.99471533298492432,
        -0.99974912405014038,
        -1
      ],
      "type": "VEC3"
    },
    {
      "bufferView": 3,
      "byteOffset": 448,
      "componentType": 5126,
      "count": 557,
      "max": [
        1,
        0.99969470500946045,
        0.99796295166015625,
        1
      ],
      "min": [
        -1,
        -0.98699033260345459,
        -0.99813151359558105,
        -1
      ],
      "type": "VEC4"
    },
    {
      "bufferView": 1,
      "byteOffset": 224,
      "componentType": 5126,
      "count": 557,
      "max": [
        0.99839997291564941,
        0.99620002508163452
      ],
      "min": [
        0.0031000000890344381,
        0
      ],
      "type": "VEC2"
    },
    {
      "bufferView": 0,
      "byteOffset": 372,
      "componentType": 5125,
      "count": 1905,
      "max": [
        556
      ],
      "min": [
        0
      ],
      "type": "SCALAR"
    }
  ],
  "asset": {
    "extras": {
      "author": "Frozenevan (https://sketchfab.com/Frozenevan)",
      "license": "CC-BY-4.0 (http://creativecommons.org/licenses/by/4.0/)",
      "source": "https://sketchfab.com/3d-models/mario-9fba20244582477db577e1751f6fac0c",
      "title": "Mario"
    },
    "generator": "Sketchfab-6.87.0",
    "version": "2.0"
  },
  "bufferViews": [
    {
      "buffer": 0,
      "byteLength": 7992,
      "byteOffset": 0,
      "name": "floatBufferViews",
      "target": 34963
    },
    {
      "buffer": 0,
      "byteLength": 4680,
      "byteOffset": 7992,
      "byteStride": 8,
      "name": "floatBufferViews",
      "target": 34962
    },
    {
      "buffer": 0,
      "byteLength": 14040,
      "byteOffset": 12672,
      "byteStride": 12,
      "name": "floatBufferViews",
      "target": 34962
    },
    {
      "buffer": 0,
      "byteLength": 9360,
      "byteOffset": 26712,
      "byteStride": 16,
      "name": "floatBufferViews",
      "target": 34962
    }
  ],
  "buffers": [
    {
      "byteLength": 36072,
      "uri": "scene.bin"
    }
  ],
  "images": [
    {
      "uri": "textures/mario_all_tx.001_baseColor.png"
    },
    {
      "uri": "textures/mario_eye_tx.001_baseColor.png"
    }
  ],
  "materials": [
    {
      "doubleSided": true,
      "name": "mario_all_tx.001",
      "pbrMetallicRoughness": {
        "baseColorFactor": [
          1,
          1,
          1,
          1
        ],
        "baseColorTexture": {
          "index": 0,
          "texCoord": 0
        },
        "metallicFactor": 0,
        "roughnessFactor": 0.59999999999999998
      }
    },
    {
      "doubleSided": true,
      "name": "mario_eye_tx.001",
      "pbrMetallicRoughness": {
        "baseColorFactor": [
          1,
          1,
          1,
          1
        ],
        "baseColorTexture": {
          "index": 1,
          "texCoord": 0
        },
        "metallicFactor": 0,
        "roughnessFactor": 0.59999999999999998
      }
    }
  ],
  "meshes": [
    {
      "primitives": [
        {
          "attributes": {
            "NORMAL": 1,
            "POSITION": 0,
            "TANGENT": 2,
            "TEXCOORD_0": 3
          },
          "indices": 4,
          "material": 1,
          "mode": 4
        }
      ]
    },
    {
      "primitives": [
        {
          "attributes": {
            "NORMAL": 6,
            "POSITION": 5,
            "TANGENT": 7,
            "TEXCOORD_0": 8
          },
          "indices": 9,
          "material": 0,
          "mode": 4
        }
      ]
    }
  ],
  "nodes": [
    {
      "children": [
        1
      ],
      "name": "RootNode (gltf orientation matrix)",
      "rotation": [
        -0.70710678118654746,
        -0,
        -0,
        0.70710678118654757
      ]
    },
    {
      "children": [
        2
      ],
      "name": "RootNode (model correction matrix)"
    },
    {
      "children": [
        3,
        4
      ],
      "name": "b97ca2cafa524a40a166c5a97f259b33.obj.cleaner.materialmerger.gles"
    },
    {
      "mesh": 0,
      "name": ""
    },
    {
      "mesh": 1,
      "name": ""
    }
  ],
  "samplers": [
    {
      "magFilter": 9729,
      "minFilter": 9987,
      "wrapS": 10497,
      "wrapT": 10497
    }
  ],
  "scene": 0,
  "scenes": [
    {
      "name": "OSG_Scene",
      "nodes": [
        0
      ]
    }
  ],
  "textures": [
    {
      "sampler": 0,
      "source": 0
    },
    {
      "sampler": 0,
      "source": 1
    }
  ]
}

